<svg xmlns="http://www.w3.org/2000/svg" viewBox="0 0 244.42 312.93"><defs><style>.cls-1{fill:#ffce56;}.cls-2{fill:#36a2eb;}.cls-3,.cls-6,.cls-7{fill:#fe6184;}.cls-3{opacity:0.8;isolation:isolate;}.cls-4,.cls-7{opacity:0.8;}.cls-5{fill:#fff;}</style></defs><title>Fichier 1</title><g id="Calque_2" data-name="Calque 2"><g id="Calque_2-2" data-name="Calque 2"><path class="cls-1" d="M232.12,146.7C219.9,131,211.61,113,193.78,113c-31.56,0-23.26,51.49-58.14,51.49s-38.55-55.38-78.07-3.32C45,177.74,34.84,196.23,26.88,213.74l98.79,57L230.77,201Z"/><path class="cls-2" d="M237.35,146.81c-38.3.75-30.32,25-57.32,31.13-27.42,6.23-31.75-67-59.17-67S87.37,182.08,53,230.9l-1,1.38Z"/><path class="cls-1" d="M227.77,193s17.28-9.28,16.64-26.64c-.32-8.61-3.63-16.17-6.89-21.61l-.16-.14c-2.24-2.87-6.41-8.73-6.41-8.73h0c-9.75-13.76-18.37-26.65-33.82-26.65-33.11,0-24.4,54-61,54s-40.45-58.1-81.91-3.48C41,177.17,30.37,196.57,22,214.93L126.77,264s75-46.72,102.19-70.58Z"/><path class="cls-3" d="M227.77,193s17.28-9.28,16.64-26.64A47,47,0,0,0,241.77,153c-5-12-23.16-22.87-32.45-22.87-48.8,0-45.31,55.76-76.68,66.22S92.56,104,56,104c-24,0-49.19,73-43.19,80s113,83,113,83,75.26-47.54,106.7-72.33Z"/><path class="cls-1" d="M234.83,24.14a18.88,18.88,0,0,0,.72-6.39A18.66,18.66,0,0,0,215.89,0a18.88,18.88,0,0,0-10.32,3.62,18.85,18.85,0,0,0,29.27,20.49Z"/><g id="path" class="cls-4"><g id="path16_fill" data-name="path16 fill"><path id="path7_fill" data-name="path7 fill" class="cls-2" d="M235.55,17.75A18.89,18.89,0,1,1,215.89,0a18.66,18.66,0,0,1,19.67,17.72Z"/></g></g><g id="path-2" data-name="path"><g id="path17_fill" data-name="path17 fill"><path id="path8_fill" data-name="path8 fill" class="cls-5" d="M125.39,223.94c-50.14,0-94.21-18-117-44.57a124.74,124.74,0,0,0,234,0C219.65,205.94,175.75,223.94,125.39,223.94Z"/></g></g><g id="path-3" data-name="path"><g id="path17_fill-2" data-name="path17 fill"><path id="path8_fill-2" data-name="path8 fill" class="cls-2" d="M125.39,235.94c-50.14,0-94.21-18-117-44.57a124.74,124.74,0,0,0,234,0C219.65,217.94,175.75,235.94,125.39,235.94Z"/></g></g><g id="path-4" data-name="path"><g id="path18_fill" data-name="path18 fill"><path id="path9_fill" data-name="path9 fill" class="cls-1" d="M125.39,63.12c50.14,0,94.21,18,117,44.57a124.74,124.74,0,0,0-234,0C31.17,81.06,75,63.12,125.39,63.12Z"/></g></g><g id="path-5" data-name="path"><g id="path19_fill" data-name="path19 fill"><path id="path10_fill" data-name="path10 fill" class="cls-1" d="M56.36,287.66a23.57,23.57,0,1,1-2.27-8.91,23.79,23.79,0,0,1,2.27,8.91Z"/></g></g><path class="cls-1" d="M27.4,42.81a13.63,13.63,0,0,0-5.13-10.12,13.69,13.69,0,0,0-9.13,24.38c.31,0,.63,0,.94,0A13.87,13.87,0,0,0,27.4,42.81Z"/><g id="path-6" data-name="path" class="cls-4"><g id="path20_fill" data-name="path20 fill"><path id="path11_fill" data-name="path11 fill" class="cls-6" d="M14.08,57.07A13.71,13.71,0,1,1,27.4,42.81,13.87,13.87,0,0,1,14.08,57.07Z"/></g></g><path class="cls-7" d="M54.09,278.74a23.52,23.52,0,0,0-1.51-2.65,26.58,26.58,0,0,0-22.46,36.69,23.91,23.91,0,0,0,24-34Z"/></g></g></svg>