<?xml version="1.0" standalone="no"?>
<!DOCTYPE svg PUBLIC "-//W3C//DTD SVG 20010904//EN"
 "http://www.w3.org/TR/2001/REC-SVG-20010904/DTD/svg10.dtd">
<svg version="1.0" xmlns="http://www.w3.org/2000/svg"
 width="321.000000pt" height="321.000000pt" viewBox="0 0 321.000000 321.000000"
 preserveAspectRatio="xMidYMid meet">
<metadata>
Created by potrace 1.11, written by Peter Selinger 2001-2013
</metadata>
<g transform="translate(0.000000,321.000000) scale(0.100000,-0.100000)"
fill="#000000" stroke="none">
<path d="M2448 3194 c-35 -19 -69 -53 -88 -89 -21 -39 -18 -154 4 -170 8 -7
13 -14 10 -17 -3 -3 14 -22 38 -41 46 -38 128 -60 128 -35 0 10 2 10 8 0 12
-19 75 5 67 26 -4 11 -2 12 8 4 16 -14 52 21 81 79 40 78 -2 197 -84 239 -47
24 -132 26 -172 4z m-61 -113 c0 -11 -5 -18 -9 -15 -4 3 -5 11 -1 19 7 21 12
19 10 -4z m23 -111 c0 -5 -5 -10 -11 -10 -5 0 -7 5 -4 10 3 6 8 10 11 10 2 0
4 -4 4 -10z m-5 -39 c3 -5 2 -12 -3 -15 -5 -3 -9 1 -9 9 0 17 3 19 12 6z m75
-17 c0 -8 -19 -13 -24 -6 -3 5 1 9 9 9 8 0 15 -2 15 -3z m26 -23 c0 -17 -3
-28 -6 -26 -5 3 -6 38 -1 53 4 10 7 -3 7 -27z m-36 -21 c0 -5 -5 -10 -11 -10
-5 0 -7 5 -4 10 3 6 8 10 11 10 2 0 4 -4 4 -10z m124 2 c3 -5 -1 -9 -9 -9 -8
0 -12 4 -9 9 3 4 7 8 9 8 2 0 6 -4 9 -8z"/>
<path d="M1490 2945 c-8 -2 -49 -9 -90 -15 -338 -55 -657 -271 -848 -575 -31
-49 -102 -197 -102 -211 0 -4 24 16 53 44 261 254 689 397 1157 386 85 -2 166
-5 180 -8 14 -2 59 -10 100 -16 103 -17 98 -16 191 -41 233 -61 451 -178 596
-319 40 -38 59 -52 54 -37 -106 275 -340 532 -606 665 -81 40 -213 86 -310
107 -70 15 -326 28 -375 20z"/>
<path d="M458 2906 c-36 -13 -48 -23 -77 -59 -11 -14 -11 -20 -1 -32 11 -13
10 -14 -2 -10 -12 5 -15 -2 -13 -32 3 -60 42 -119 73 -108 7 3 10 1 7 -4 -7
-12 32 -25 69 -22 65 4 126 73 126 142 0 86 -99 154 -182 125z m72 -10 c0 -2
-7 -7 -16 -10 -8 -3 -12 -2 -9 4 6 10 25 14 25 6z m-105 -106 c3 -5 1 -10 -4
-10 -6 0 -11 5 -11 10 0 6 2 10 4 10 3 0 8 -4 11 -10z"/>
<path d="M867 2155 c-21 -7 -61 -36 -88 -63 -50 -51 -61 -69 -34 -59 8 4 17 2
20 -3 3 -4 -6 -7 -20 -5 -19 2 -30 -6 -46 -31 -11 -19 -18 -38 -14 -44 4 -6 1
-9 -7 -8 -8 2 -13 -6 -12 -18 0 -16 -4 -20 -14 -16 -10 3 -13 1 -8 -6 3 -6 2
-13 -3 -16 -16 -10 -62 -117 -55 -128 5 -7 2 -8 -6 -3 -10 6 -12 4 -7 -8 3
-10 2 -17 -3 -17 -5 0 -15 -19 -21 -42 -15 -52 -14 -50 -21 -68 -24 -62 -34
-110 -24 -110 7 0 6 -3 -2 -8 -16 -11 -24 -109 -11 -134 7 -13 16 -17 27 -13
9 3 13 3 9 -1 -3 -4 3 -16 16 -26 12 -11 35 -31 50 -44 16 -14 35 -23 43 -20
9 3 12 1 9 -4 -25 -40 301 -193 510 -241 165 -37 281 -48 495 -44 118 1 231 6
250 10 325 62 490 122 679 250 113 75 173 131 204 189 29 55 30 178 0 252 -21
53 -159 253 -231 334 -77 87 -191 127 -287 100 -80 -22 -133 -81 -210 -232
-65 -127 -132 -234 -142 -225 -2 3 -32 65 -67 139 -114 244 -181 316 -288 306
-83 -8 -140 -64 -213 -208 l-36 -70 -31 13 c-18 7 -39 28 -52 52 -11 22 -23
42 -26 45 -3 3 -14 22 -25 44 -11 21 -25 41 -32 43 -7 3 -10 9 -7 14 3 5 -2
12 -10 15 -9 3 -16 12 -16 19 0 22 -28 39 -43 26 -10 -8 -14 -7 -14 4 0 8 4
12 9 9 4 -3 8 -1 8 4 0 15 -103 62 -135 62 -17 -1 -47 -7 -68 -15z m-1 -61 c1
-9 0 -13 -4 -10 -3 4 -7 14 -8 22 -1 9 0 13 4 10 3 -4 7 -14 8 -22z m44 20 c0
-8 -19 -13 -24 -6 -3 5 1 9 9 9 8 0 15 -2 15 -3z m40 -4 c0 -5 -5 -10 -11 -10
-5 0 -7 5 -4 10 3 6 8 10 11 10 2 0 4 -4 4 -10z m40 6 c0 -3 -4 -8 -10 -11 -5
-3 -10 -1 -10 4 0 6 5 11 10 11 6 0 10 -2 10 -4z m50 -2 c0 -8 -19 -13 -24 -6
-3 5 1 9 9 9 8 0 15 -2 15 -3z m10 -65 c0 -5 -4 -9 -8 -9 -5 0 -9 7 -9 15 0 8
4 12 9 9 4 -3 8 -9 8 -15z m-160 1 c0 -5 -4 -10 -10 -10 -5 0 -10 5 -10 10 0
6 5 10 10 10 6 0 10 -4 10 -10z m80 -55 c0 -7 -30 -13 -34 -7 -3 4 4 9 15 9
10 1 19 0 19 -2z m140 -5 c0 -5 -2 -10 -4 -10 -3 0 -8 5 -11 10 -3 6 -1 10 4
10 6 0 11 -4 11 -10z m-165 -29 c3 -5 2 -12 -3 -15 -5 -3 -9 1 -9 9 0 17 3 19
12 6z m160 0 c3 -5 2 -12 -3 -15 -5 -3 -9 1 -9 9 0 17 3 19 12 6z m-275 -11
c0 -5 -2 -10 -4 -10 -3 0 -8 5 -11 10 -3 6 -1 10 4 10 6 0 11 -4 11 -10z m160
0 c0 -5 -2 -10 -4 -10 -3 0 -8 5 -11 10 -3 6 -1 10 4 10 6 0 11 -4 11 -10z
m-125 -39 c3 -5 2 -12 -3 -15 -5 -3 -9 1 -9 9 0 17 3 19 12 6z m278 -16 c-7
-21 -12 -19 -10 4 0 11 5 18 9 15 4 -3 5 -11 1 -19z m44 3 c2 -17 0 -19 -7 -8
-5 8 -6 18 -4 22 8 12 10 10 11 -14z m-397 -28 c0 -5 -5 -10 -11 -10 -5 0 -7
5 -4 10 3 6 8 10 11 10 2 0 4 -4 4 -10z m84 2 c3 -5 -1 -9 -9 -9 -8 0 -12 4
-9 9 3 4 7 8 9 8 2 0 6 -4 9 -8z m156 -2 c0 -5 -2 -10 -4 -10 -3 0 -8 5 -11
10 -3 6 -1 10 4 10 6 0 11 -4 11 -10z m75 -20 c3 -5 1 -10 -4 -10 -6 0 -11 5
-11 10 0 6 2 10 4 10 3 0 8 -4 11 -10z m-155 -20 c0 -5 -2 -10 -4 -10 -3 0 -8
5 -11 10 -3 6 -1 10 4 10 6 0 11 -4 11 -10z m74 -2 c-3 -4 -11 -5 -19 -1 -21
7 -19 12 4 10 11 0 18 -5 15 -9z m-319 -38 c3 -5 1 -10 -4 -10 -6 0 -11 5 -11
10 0 6 2 10 4 10 3 0 8 -4 11 -10z m165 6 c0 -3 -4 -8 -10 -11 -5 -3 -10 -1
-10 4 0 6 5 11 10 11 6 0 10 -2 10 -4z m154 -4 c2 -4 -5 -9 -17 -9 -17 -2 -19
0 -7 7 18 12 18 12 24 2z m-278 -38 c1 -9 0 -13 -4 -10 -3 4 -7 14 -8 22 -1 9
0 13 4 10 3 -4 7 -14 8 -22z m-116 -4 c0 -5 -5 -10 -11 -10 -5 0 -7 5 -4 10 3
6 8 10 11 10 2 0 4 -4 4 -10z m84 2 c3 -5 -1 -9 -9 -9 -8 0 -12 4 -9 9 3 4 7
8 9 8 2 0 6 -4 9 -8z m196 -36 c0 -3 -4 -8 -10 -11 -5 -3 -10 -1 -10 4 0 6 5
11 10 11 6 0 10 -2 10 -4z m-120 -40 c0 -3 -4 -8 -10 -11 -5 -3 -10 -1 -10 4
0 6 5 11 10 11 6 0 10 -2 10 -4z m80 0 c0 -3 -4 -8 -10 -11 -5 -3 -10 -1 -10
4 0 6 5 11 10 11 6 0 10 -2 10 -4z m-285 -46 c3 -5 1 -10 -4 -10 -6 0 -11 5
-11 10 0 6 2 10 4 10 3 0 8 -4 11 -10z m85 6 c0 -3 -4 -8 -10 -11 -5 -3 -10
-1 -10 4 0 6 5 11 10 11 6 0 10 -2 10 -4z m115 -35 c3 -5 2 -12 -3 -15 -5 -3
-9 1 -9 9 0 17 3 19 12 6z m39 -9 c3 -5 -1 -9 -9 -9 -8 0 -12 4 -9 9 3 4 7 8
9 8 2 0 6 -4 9 -8z m-280 -40 c3 -5 -1 -9 -9 -9 -8 0 -12 4 -9 9 3 4 7 8 9 8
2 0 6 -4 9 -8z m46 -2 c0 -5 -5 -10 -11 -10 -5 0 -7 5 -4 10 3 6 8 10 11 10 2
0 4 -4 4 -10z m140 -14 c0 -3 -4 -8 -10 -11 -5 -3 -10 -1 -10 4 0 6 5 11 10
11 6 0 10 -2 10 -4z m34 -12 c3 -8 2 -12 -4 -9 -6 3 -10 10 -10 16 0 14 7 11
14 -7z m-179 -15 c2 -3 -8 -5 -25 -5 -16 0 -27 3 -25 6 5 8 42 6 50 -1z m205
-19 c0 -5 -5 -10 -11 -10 -5 0 -7 5 -4 10 3 6 8 10 11 10 2 0 4 -4 4 -10z
m-120 -20 c0 -5 -2 -10 -4 -10 -3 0 -8 5 -11 10 -3 6 -1 10 4 10 6 0 11 -4 11
-10z m-135 -20 c-3 -5 -12 -10 -18 -10 -7 0 -6 4 3 10 19 12 23 12 15 0z m55
-20 c0 -5 -5 -10 -11 -10 -5 0 -7 5 -4 10 3 6 8 10 11 10 2 0 4 -4 4 -10z
m-66 -26 c3 -8 2 -12 -4 -9 -6 3 -10 10 -10 16 0 14 7 11 14 -7z m146 -48 c0
-3 -4 -8 -10 -11 -5 -3 -10 -1 -10 4 0 6 5 11 10 11 6 0 10 -2 10 -4z m-66
-44 c3 -5 -1 -9 -9 -9 -8 0 -12 4 -9 9 3 4 7 8 9 8 2 0 6 -4 9 -8z"/>
<path d="M456 1270 c13 -48 87 -186 142 -263 171 -245 461 -438 742 -496 30
-6 66 -14 80 -17 55 -14 326 -12 405 3 298 54 595 228 758 442 23 31 45 58 48
61 27 22 156 267 145 277 -2 3 -24 -14 -48 -37 -187 -182 -477 -314 -803 -364
-16 -3 -50 -8 -75 -12 -81 -12 -355 -11 -461 2 -131 16 -143 18 -264 49 -265
67 -509 199 -653 355 l-23 25 7 -25z"/>
<path d="M603 542 c-244 -98 -176 -462 87 -462 202 0 313 237 182 390 -66 78
-178 108 -269 72z"/>
</g>
</svg>
